<?xml version="1.0" standalone="no"?><!DOCTYPE svg PUBLIC "-//W3C//DTD SVG 1.1//EN" "http://www.w3.org/Graphics/SVG/1.1/DTD/svg11.dtd"><svg class="icon" width="16px" height="16.00px" viewBox="0 0 1024 1024" version="1.1" xmlns="http://www.w3.org/2000/svg"><path d="M446.1 432c0 8.3-6.7 15-15 15H78c-8.3 0-15-6.7-15-15V79c0-8.3 6.7-15 15-15h353c8.3 0 15 6.7 15 15v353h0.1zM959 432c0 8.3-6.7 15-15 15H591c-8.3 0-15-6.7-15-15V79c0-8.3 6.7-15 15-15h353c8.3 0 15 6.7 15 15v353zM446.1 945c0 8.3-6.7 15-15 15H78c-8.3 0-15-6.7-15-15V592c0-8.3 6.7-15 15-15h353c8.3 0 15 6.7 15 15v353h0.1zM959 945c0 8.3-6.7 15-15 15H591c-8.3 0-15-6.7-15-15V592c0-8.3 6.7-15 15-15h353c8.3 0 15 6.7 15 15v353z" fill="#8a8a8a" /></svg>